<svg width="24" height="24" viewBox="0 0 24 24" fill="none" xmlns="http://www.w3.org/2000/svg">
    <path fill-rule="evenodd" clip-rule="evenodd" d="M12 4.712c.716 0 1.42.19 2.038.55l4.334 2.542h.002c.384.223.622.631.626 1.075v1.527a1.252 1.252 0 0 1-1.252 1.252h-.838v4.886h.315a1.775 1.775 0 0 1 1.747 1.459H5.028a1.775 1.775 0 0 1 1.747-1.46h.315v-4.885h-.838A1.253 1.253 0 0 1 5 10.406v-1.52c.001-.446.24-.858.626-1.081l4.336-2.543A4.044 4.044 0 0 1 12 4.712zm1.3 1.81a2.582 2.582 0 0 0-2.601.003l-4.24 2.471v1.202h11.082V8.996L13.3 6.522zm-2.03 5.136H8.55v4.885h2.72v-4.885zm4.18 0h-2.72v4.885h2.72v-4.885z" fill="#0056D2"/>
</svg>
